<?xml version="1.0" standalone="no"?>
<!DOCTYPE svg PUBLIC "-//W3C//DTD SVG 20010904//EN"
 "http://www.w3.org/TR/2001/REC-SVG-20010904/DTD/svg10.dtd">
<svg version="1.0" xmlns="http://www.w3.org/2000/svg"
 width="512.000000pt" height="512.000000pt" viewBox="0 0 512.000000 512.000000"
 preserveAspectRatio="xMidYMid meet">

<g transform="translate(0.000000,512.000000) scale(0.100000,-0.100000)"
fill="#000000" stroke="none">
<path d="M420 3050 c0 -5 -11 -10 -25 -10 -14 0 -30 -9 -37 -20 -7 -11 -17
-20 -21 -20 -14 0 -37 -27 -37 -44 0 -8 -9 -18 -20 -21 -20 -6 -20 -15 -20
-1140 0 -1125 0 -1134 20 -1140 11 -3 20 -13 20 -21 0 -17 23 -44 37 -44 4 0
14 -9 21 -20 7 -11 23 -20 37 -20 14 0 25 -4 25 -10 0 -7 722 -10 2145 -10
1423 0 2145 3 2145 10 0 6 11 10 25 10 14 0 30 9 37 20 7 11 17 20 21 20 14 0
37 27 37 44 0 8 9 18 20 21 20 6 20 15 20 1140 0 1125 0 1134 -20 1140 -11 3
-20 13 -20 21 0 17 -23 44 -37 44 -4 0 -14 9 -21 20 -7 11 -23 20 -37 20 -14
0 -25 5 -25 10 0 7 -722 10 -2145 10 -1423 0 -2145 -3 -2145 -10z m3350 -490
c5 -8 10 -117 10 -242 0 -217 1 -228 19 -228 10 0 21 6 24 13 7 16 99 61 168
81 110 32 289 12 394 -43 51 -26 132 -93 163 -134 86 -116 122 -310 88 -485
-29 -151 -104 -265 -226 -343 -66 -43 -77 -47 -160 -65 -165 -36 -322 -1 -441
98 -26 21 -50 38 -53 38 -3 0 -6 -27 -6 -60 0 -73 4 -72 -180 -68 l-135 3 -3
714 c-2 539 1 717 10 728 17 21 314 15 328 -7z m-2860 -229 c0 -156 4 -242 10
-246 6 -4 25 4 43 17 179 134 485 132 645 -4 18 -15 32 -31 32 -37 0 -6 5 -11
10 -11 6 0 10 -8 10 -18 0 -10 5 -23 12 -30 6 -6 13 -17 14 -24 1 -7 7 -33 13
-58 6 -28 11 -190 11 -422 l0 -378 -175 0 -175 0 0 323 c0 379 -7 441 -53 477
-35 28 -97 50 -141 50 -40 0 -106 -20 -138 -42 -14 -10 -30 -18 -35 -18 -17 0
-61 -98 -72 -161 -6 -38 -11 -186 -11 -348 l0 -281 -172 2 -173 3 -3 700 c-1
385 0 710 3 723 5 22 7 22 175 22 l170 0 0 -239z m1430 -163 c-3 -99 10 -692
16 -716 3 -18 23 -51 44 -75 l38 -42 99 0 c94 0 102 2 144 30 104 71 102 63
109 465 l5 345 173 3 172 2 -2 -527 -3 -528 -157 -3 -158 -3 0 61 c0 46 -3 60
-15 60 -8 0 -19 -9 -25 -20 -6 -11 -17 -20 -24 -20 -7 0 -21 -9 -31 -20 -10
-11 -24 -20 -32 -20 -7 0 -24 -7 -37 -15 -35 -23 -162 -48 -241 -48 -191 0
-334 78 -387 211 -22 55 -23 70 -28 455 -3 218 -3 402 -2 407 6 16 342 13 342
-2z"/>
<path d="M3978 1966 c-76 -15 -136 -59 -171 -126 -27 -50 -29 -60 -29 -180 0
-100 4 -135 17 -161 29 -57 63 -97 111 -130 43 -29 52 -31 135 -32 77 0 94 3
119 21 16 12 33 22 38 22 15 0 68 83 83 130 20 63 17 231 -5 294 -30 87 -97
149 -173 161 -25 4 -51 8 -57 10 -6 1 -37 -2 -68 -9z"/>
</g>
</svg>
