<?xml version="1.0" standalone="no"?>
<!DOCTYPE svg PUBLIC "-//W3C//DTD SVG 20010904//EN"
 "http://www.w3.org/TR/2001/REC-SVG-20010904/DTD/svg10.dtd">
<svg version="1.0" xmlns="http://www.w3.org/2000/svg"
 width="512.000000pt" height="512.000000pt" viewBox="0 0 512.000000 512.000000"
 preserveAspectRatio="xMidYMid meet">

<g transform="translate(0.000000,512.000000) scale(0.100000,-0.100000)"
fill="#000000" stroke="none">
<path d="M2250 4565 l0 -95 105 0 105 0 0 95 0 95 -105 0 -105 0 0 -95z"/>
<path d="M580 4356 c-105 -22 -173 -79 -215 -180 -9 -21 -15 -40 -13 -42 2 -1
35 -8 73 -14 39 -6 81 -13 95 -15 21 -5 28 0 44 29 23 44 69 66 135 66 94 0
141 -35 141 -106 0 -30 -10 -34 -187 -75 -172 -39 -224 -61 -268 -112 -39 -46
-55 -91 -55 -157 0 -75 19 -121 69 -172 105 -105 296 -101 423 11 l36 31 12
-50 12 -50 108 0 108 0 -21 53 c-19 47 -21 80 -27 342 -6 315 -7 321 -67 376
-15 15 -42 34 -59 42 -69 35 -238 46 -344 23z m258 -510 c-4 -89 -22 -120 -88
-153 -66 -34 -122 -31 -166 10 -28 26 -36 41 -37 70 -2 61 29 83 164 117 63
16 118 29 123 29 4 1 6 -33 4 -73z"/>
<path d="M1643 4356 c-53 -17 -100 -47 -137 -85 -17 -17 -33 -31 -38 -31 -4 0
-8 25 -8 55 l0 55 -100 0 -100 0 0 -415 0 -415 110 0 110 0 0 239 c0 131 4
262 10 290 12 66 40 106 93 132 49 26 126 22 158 -7 50 -45 53 -61 57 -366 l4
-288 105 0 104 0 -3 338 c-3 323 -4 339 -25 377 -26 49 -55 76 -112 105 -55
28 -168 36 -228 16z"/>
<path d="M3055 4361 c-48 -13 -110 -48 -149 -84 l-36 -34 0 53 0 54 -100 0
-100 0 0 -415 0 -415 104 0 103 0 6 263 c3 151 11 279 17 302 34 115 191 157
245 65 19 -33 20 -54 23 -332 l4 -298 103 0 103 0 4 268 c3 260 4 268 28 316
14 28 37 59 51 69 38 28 112 34 145 13 50 -34 54 -61 54 -376 l0 -290 111 0
110 0 -3 333 c-3 325 -4 333 -26 380 -79 160 -308 183 -451 46 l-43 -41 -16
23 c-25 37 -59 65 -99 84 -41 20 -142 28 -188 16z"/>
<path d="M4309 4356 c-206 -55 -319 -289 -265 -547 45 -212 201 -324 425 -305
146 12 252 87 308 217 l12 27 -82 11 c-45 7 -93 14 -107 17 -22 4 -29 -1 -43
-31 -34 -71 -120 -94 -204 -54 -48 23 -86 79 -97 142 l-7 37 277 0 277 0 -6
90 c-16 225 -117 361 -295 399 -67 14 -134 13 -193 -3z m199 -183 c35 -25 72
-98 72 -140 l0 -33 -160 0 -160 0 0 33 c1 65 49 135 110 160 28 12 111 0 138
-20z"/>
<path d="M2250 3935 l0 -415 105 0 105 0 0 415 0 415 -105 0 -105 0 0 -415z"/>
<path d="M550 2956 c-90 -24 -163 -87 -204 -175 -21 -46 -21 -51 -21 -1021 l0
-975 28 -57 c32 -65 89 -121 156 -152 l46 -21 2040 0 2040 0 46 21 c67 31 124
87 156 152 l28 57 0 975 0 975 -28 57 c-32 65 -89 121 -156 152 l-46 21 -2020
2 c-1575 1 -2030 -1 -2065 -11z m350 -657 l0 -260 31 23 c133 99 204 122 367
116 151 -6 213 -29 293 -108 94 -93 93 -86 97 -582 l3 -428 -165 0 -166 0 -1
338 c0 185 -4 363 -8 394 -12 95 -65 148 -155 156 -114 9 -196 -22 -245 -94
-44 -64 -51 -125 -51 -471 l0 -323 -170 0 -170 0 0 750 0 750 170 0 170 0 0
-261z m2890 6 l0 -255 52 39 c84 64 145 84 280 89 99 3 128 1 186 -17 227 -69
351 -259 352 -539 0 -191 -50 -335 -154 -437 -111 -110 -221 -150 -392 -143
-89 3 -107 7 -174 39 -41 20 -99 57 -127 83 l-53 48 0 -76 0 -76 -155 0 -155
0 0 750 0 750 170 0 170 0 0 -255z m-1448 -523 c4 -366 4 -369 29 -418 34 -68
81 -94 174 -94 83 0 135 21 188 74 20 19 41 53 48 73 8 26 14 151 16 386 l5
347 169 0 169 0 0 -545 0 -545 -160 0 -160 0 0 70 0 70 -52 -41 c-117 -92
-214 -123 -372 -117 -146 6 -209 30 -287 107 -94 94 -93 87 -97 579 l-3 422
164 0 164 0 5 -368z"/>
<path d="M3932 1924 c-115 -57 -166 -196 -142 -377 25 -179 120 -276 269 -277
80 0 137 25 186 83 51 59 70 130 69 257 0 118 -17 183 -64 248 -65 90 -210
120 -318 66z"/>
</g>
</svg>
